<?xml version="1.0" encoding="UTF-8"?> <svg xmlns="http://www.w3.org/2000/svg" xmlns:xlink="http://www.w3.org/1999/xlink" width="164px" height="164px" viewBox="0 0 164 164"> <title>дата-01 copy 2</title> <g id="Макеты" stroke="none" stroke-width="1" fill="none" fill-rule="evenodd"> <g id="mac-copy-41" transform="translate(-1107.000000, -2585.000000)"> <g id="дата-01-copy-2" transform="translate(1189.000000, 2667.000000) rotate(-383.000000) translate(-1189.000000, -2667.000000) translate(1104.347045, 2582.347045)"> <path d="M81.0634185,164.642067 C79.6954842,166.30319 77.2399483,166.540866 75.5788257,165.172932 C75.2140918,164.872574 74.9070303,164.50838 74.6726327,164.098131 C73.3986062,161.8683 70.558168,161.093467 68.3283364,162.367493 C68.0684142,162.516001 67.8234402,162.689262 67.596825,162.884862 C65.9678361,164.290909 63.5074534,164.110179 62.1014065,162.48119 C61.7926799,162.123512 61.5515842,161.712663 61.3898905,161.268702 C60.5110331,158.855633 57.8423994,157.611909 55.4293304,158.490766 C55.148049,158.593211 54.8773176,158.722579 54.6209053,158.877068 C52.7777248,159.987589 50.3832761,159.393652 49.2727544,157.550472 C49.0289164,157.145763 48.8607224,156.700079 48.7763842,156.235178 C48.3179791,153.708291 45.8979217,152.031455 43.3710348,152.48986 C43.0764862,152.543295 42.7877858,152.625047 42.508953,152.73398 C40.5046059,153.517029 38.244975,152.526971 37.4619262,150.522624 C37.2899916,150.082528 37.199538,149.61483 37.1949816,149.142363 C37.1702162,146.574352 35.0683557,144.512644 32.500345,144.53741 C32.2010027,144.540297 31.9026387,144.572083 31.6094069,144.632326 C29.5015546,145.065375 27.441747,143.707679 27.008698,141.599827 C26.9136131,141.137004 26.903502,140.660746 26.9788585,140.194305 C27.3884452,137.659047 25.6652484,135.271779 23.1299907,134.862193 C22.8344664,134.814449 22.5350221,134.795354 22.235827,134.805174 C20.0851086,134.875766 18.2843813,133.189489 18.21379,131.038771 C18.1982902,130.566536 18.2688126,130.09542 18.4219141,129.648424 C19.2540699,127.218854 17.9591099,124.574703 15.5295401,123.742547 C15.2463354,123.645546 14.9544254,123.57612 14.6578743,123.535235 C12.526162,123.241337 11.0363186,121.274992 11.3302159,119.14328 C11.3947471,118.675218 11.5438741,118.222797 11.7703161,117.808105 C13.0011014,115.554117 12.171632,112.72915 9.91764433,111.498365 C9.65490643,111.354898 9.37892841,111.237137 9.09355262,111.146722 C7.04217197,110.496791 5.90607251,108.306946 6.55600346,106.255565 C6.69870925,105.805142 6.92215078,105.384431 7.215419,105.013972 C8.80942628,103.00041 8.46930968,100.075897 6.45574733,98.4818896 C6.22103479,98.2960828 5.96892813,98.1333754 5.70293734,97.9960327 C3.79090279,97.0087654 3.04123082,94.6584169 4.02849812,92.7463823 C4.24527308,92.3265556 4.53660112,91.9496579 4.88825876,91.6340905 C6.79963139,89.9188799 6.95865216,86.9789534 5.2434416,85.0675808 C5.04350669,84.8447801 4.82252404,84.6418068 4.58357031,84.461487 C2.86588762,83.1652853 2.52420983,80.7220492 3.82041159,79.0043665 C4.10501951,78.6272137 4.45585308,78.304972 4.8557836,78.0533742 C7.02953486,76.6858589 7.68311826,73.8150952 6.31560299,71.6413439 C6.15619746,71.3879588 5.97269608,71.1505589 5.76765368,70.9324495 C4.29373746,69.3646026 4.36988329,66.8987664 5.93773016,65.4248502 C6.28198338,65.1012214 6.68222963,64.842906 7.11892776,64.6625158 C9.49252279,63.6820367 10.6218664,60.9630224 9.64138735,58.5894274 C9.52709701,58.3127474 9.38635591,58.0477504 9.22112354,57.7981259 C8.03337566,56.003738 8.52515454,53.5862394 10.3195424,52.3984915 C10.7135374,52.1376969 11.151682,51.9507391 11.6125847,51.8467459 C14.1177395,51.2815097 15.6903542,48.7924659 15.1251179,46.2873111 C15.0592307,45.9952957 14.9652987,45.7103251 14.8446298,45.4363668 C13.9772197,43.4670592 14.870484,41.1674451 16.8397916,40.3000349 C17.2721938,40.1095771 17.7356321,39.9993553 18.2074801,39.9747509 C20.7721259,39.8410183 22.7427704,37.6535504 22.6090378,35.0889046 C22.5934491,34.7899545 22.5490286,34.4932084 22.4763945,34.2027976 C21.9542759,32.1152237 23.2233281,29.9996498 25.310902,29.4775311 C25.7692721,29.3628892 26.2446718,29.3325743 26.7138908,29.3880665 C29.2642475,29.6896848 31.5762299,27.8667221 31.8778481,25.3163655 C31.9130065,25.0190811 31.9193752,24.7190962 31.8968657,24.4205875 C31.7350589,22.274803 33.3433907,20.4041306 35.4891752,20.2423238 C35.9603266,20.2067958 36.4340114,20.2572599 36.8871029,20.3912523 C39.3498013,21.1195444 41.9366101,19.7135304 42.6649022,17.250832 C42.7497962,16.9637656 42.806771,16.6691721 42.8350334,16.371153 C43.0381934,14.2288881 44.939536,12.656933 47.0818009,12.8600931 C47.5521795,12.9047011 48.0105222,13.0344924 48.4344516,13.2431303 C50.7386443,14.3771446 53.5258618,13.4285276 54.6598761,11.1243349 C54.7920634,10.8557448 54.8980053,10.5750175 54.9762266,10.2860616 C55.5385089,8.20894543 57.6781641,6.98092996 59.7552802,7.54321223 C60.211354,7.66667295 60.6411691,7.87205766 61.0237407,8.14933892 C63.1031403,9.65645194 66.0105833,9.19252195 67.5176963,7.1131223 C67.6933742,6.87073538 67.8452352,6.61195038 67.9711652,6.34037026 C68.8763939,4.38815771 71.1928077,3.5394096 73.1450203,4.44463829 C73.573669,4.64339998 73.9625914,4.91846953 74.2927992,5.25641726 C76.0875853,7.09327207 79.0316119,7.12737554 80.8684667,5.33258949 C81.0825811,5.1233788 81.2759927,4.89398083 81.4460086,4.64758942 C82.6681419,2.87644206 85.0946753,2.43137825 86.8658227,3.65351157 C87.2547148,3.92185623 87.5915559,4.25869736 87.8599005,4.64758942 C89.3184403,6.76134306 92.2143562,7.29249889 94.3281098,5.83395918 C94.5745013,5.66394331 94.8038992,5.47053174 95.0131099,5.25641726 C96.5169893,3.71728778 98.9838354,3.68871195 100.522965,5.19259135 C100.860913,5.5227992 101.135982,5.91172159 101.334744,6.34037026 C102.415078,8.67021389 105.179573,9.6831417 107.509416,8.60280785 C107.780997,8.47687786 108.039782,8.32501678 108.282168,8.14933892 C110.02453,6.88650527 112.460722,7.27523949 113.723556,9.0176011 C114.000837,9.40017266 114.206222,9.82998774 114.329683,10.2860616 C115.000731,12.7649698 117.554276,14.2305295 120.033184,13.5594808 C120.32214,13.4812594 120.602867,13.3753176 120.871458,13.2431303 C122.802177,12.2929219 125.13763,13.087783 126.087838,15.0185023 C126.296476,15.4424316 126.426268,15.9007744 126.470876,16.371153 C126.713335,18.9278122 128.982468,20.8038423 131.539127,20.5613835 C131.837146,20.5331211 132.13174,20.4761463 132.418806,20.3912523 C134.48234,19.781005 136.649868,20.9591262 137.260115,23.0226598 C137.394107,23.4757514 137.444571,23.9494361 137.409043,24.4205875 C137.215937,26.9814473 139.135381,29.2139778 141.69624,29.4070841 C141.994749,29.4295936 142.294734,29.4232249 142.592018,29.3880665 C144.729002,29.1353359 146.666249,30.6628249 146.918979,32.7998088 C146.974471,33.2690278 146.944157,33.7444275 146.829515,34.2027976 C146.206399,36.6941866 147.720933,39.2189917 150.212322,39.8421077 C150.502733,39.9147417 150.799479,39.9591623 151.098429,39.9747509 C153.247386,40.0868076 154.89862,41.9197213 154.786563,44.0686783 C154.761959,44.5405263 154.651737,45.0039646 154.461279,45.4363668 C153.426079,47.7866123 154.492135,50.531058 156.84238,51.5662578 C157.116338,51.6869267 157.401309,51.7808587 157.693324,51.8467459 C159.792433,52.3203663 161.110151,54.4059751 160.636531,56.5050836 C160.532538,56.9659863 160.34558,57.4041309 160.084786,57.7981259 C158.667283,59.9396156 159.25419,62.8247492 161.39568,64.242252 C161.645304,64.4074844 161.910301,64.5482255 162.186981,64.6625158 C164.175854,65.4840746 165.122149,67.7623793 164.30059,69.7512519 C164.1202,70.18795 163.861884,70.5881963 163.538255,70.9324495 C161.779229,72.8035767 161.870104,75.746398 163.741231,77.5054249 C163.959341,77.7104673 164.19674,77.8939687 164.450126,78.0533742 C166.271546,79.1992367 166.819194,81.6046947 165.673331,83.426115 C165.421733,83.8260455 165.099492,84.1768791 164.722339,84.461487 C162.672392,86.0084228 162.264621,88.9242723 163.811557,90.9742192 C163.991876,91.2131729 164.19485,91.4341556 164.41765,91.6340905 C166.019219,93.0712924 166.152465,95.534703 164.715264,97.1362721 C164.399696,97.4879297 164.022799,97.7792578 163.602972,97.9960327 C161.321078,99.1742745 160.426391,101.979269 161.604633,104.261162 C161.741976,104.527153 161.904683,104.77926 162.09049,105.013972 C163.426134,106.701168 163.141145,109.151663 161.453949,110.487307 C161.083491,110.780575 160.66278,111.004017 160.212357,111.146722 C157.764162,111.922374 156.408298,114.535818 157.18395,116.984013 C157.274365,117.269389 157.392125,117.545367 157.535593,117.808105 C158.566887,119.696756 157.871862,122.06384 155.98321,123.095134 C155.568518,123.321576 155.116096,123.470703 154.648035,123.535235 C152.103969,123.885983 150.325934,126.232692 150.676683,128.776758 C150.717568,129.073309 150.786994,129.365219 150.883995,129.648424 C151.581271,131.684198 150.496204,133.899774 148.460429,134.59705 C148.013433,134.750152 147.542317,134.820674 147.070082,134.805174 C144.503334,134.720928 142.354279,136.733393 142.270032,139.300141 C142.260212,139.599336 142.279307,139.898781 142.327051,140.194305 C142.67025,142.318637 141.226356,144.318966 139.102024,144.662166 C138.635583,144.737522 138.159325,144.727411 137.696502,144.632326 C135.180912,144.115509 132.722661,145.735835 132.205844,148.251425 C132.145601,148.544656 132.113814,148.84302 132.110927,149.142363 C132.090176,151.294139 130.328994,153.021676 128.177218,153.000925 C127.704751,152.996369 127.237052,152.905915 126.796956,152.73398 C124.404893,151.799461 121.708165,152.981033 120.773645,155.373096 C120.664712,155.651929 120.582959,155.940629 120.529525,156.235178 C120.14542,158.352496 118.117616,159.757543 116.000298,159.373438 C115.535397,159.2891 115.089712,159.120906 114.685004,158.877068 C112.485283,157.55173 109.627658,158.260557 108.30232,160.460277 C108.147831,160.71669 108.018463,160.987421 107.916019,161.268702 C107.17961,163.290651 104.94352,164.332787 102.921572,163.596378 C102.477611,163.434685 102.066762,163.193589 101.709084,162.884862 C99.7649876,161.206833 96.8286747,161.422524 95.1506457,163.36662 C94.9550449,163.593235 94.7817844,163.838209 94.6332764,164.098131 C93.5657497,165.966542 91.1857019,166.615787 89.317291,165.54826 C88.9070427,165.313863 88.5428489,165.006801 88.2424906,164.642067 C86.6099465,162.659621 83.6794179,162.37597 81.6969719,164.008514 C81.4658865,164.198813 81.2537174,164.410982 81.0634185,164.642067 Z" id="Star" fill="#7A3AA4"></path> <text id="400" font-family="Circe-Bold, Circe" font-size="70.3891028" font-weight="bold" letter-spacing="-1.62436392" fill="#F1EBF5"> <tspan x="29.1114404" y="110.826275">400</tspan> </text> <text id="экономия-до" font-family="Circe-Bold, Circe" font-size="17.1428457" font-weight="bold" fill="#F1EBF5"> <tspan x="35.9072728" y="48.9894254">экономия до</tspan> </text> <text id="тысяч" font-family="Circe-Bold, Circe" font-size="17.1428457" font-weight="bold" fill="#F1EBF5"> <tspan x="62.5901121" y="132.368462">тысяч</tspan> </text> </g> </g> </g> </svg> 